<?xml version="1.0" encoding="utf-8"?>
<svg viewBox="162.332 127.355 126.2 126.2" xmlns="http://www.w3.org/2000/svg">
  <g transform="matrix(1, 0, 0, 1, 125.218918, 30.647987)">
    <circle cx="100.213" cy="159.807" r="63.1" style="fill:#2d6bff"/>
    <path d="M 99.433 113.207 C 86.903 113.407 65.613 134.507 65.613 169.997 C 65.613 181.507 71.823 205.487 99.323 205.487 C 125.933 205.487 134.813 186.307 134.813 169.997 C 134.813 136.427 115.293 113.407 99.433 113.207 Z" style="fill:#fff"/>
    <path d="M 122.493 172.037 C 122.493 159.732 112.518 149.757 100.213 149.757 L 100.213 172.037 L 122.493 172.037 Z" style="fill:#fbd405"/>
    <path d="M 100.213 194.317 C 112.518 194.317 122.493 184.342 122.493 172.037 L 100.213 172.037 L 100.213 194.317 Z" style="fill:#2d6bff"/>
    <path d="M 77.933 172.037 C 77.927 184.344 87.905 194.322 100.213 194.317 L 100.213 172.037 L 77.933 172.037 Z" style="fill:#20b5ff"/>
  </g>
</svg>