<?xml version="1.0" encoding="UTF-8" standalone="no"?>
<svg
   xmlns:dc="http://purl.org/dc/elements/1.1/"
   xmlns:cc="http://creativecommons.org/ns#"
   xmlns:rdf="http://www.w3.org/1999/02/22-rdf-syntax-ns#"
   xmlns:svg="http://www.w3.org/2000/svg"
   xmlns="http://www.w3.org/2000/svg"
   xmlns:sodipodi="http://sodipodi.sourceforge.net/DTD/sodipodi-0.dtd"
   xmlns:inkscape="http://www.inkscape.org/namespaces/inkscape"
   viewBox="0 0 387.78999 377.38364"
   height="377.38364"
   width="387.79001"
   xml:space="preserve"
   version="1.1"
   id="svg2"
   inkscape:version="0.91 r13725"
   sodipodi:docname="LOGO_DEFINITIVO_DECHIT_2016.svg"><sodipodi:namedview
     pagecolor="#ffffff"
     bordercolor="#666666"
     borderopacity="1"
     objecttolerance="10"
     gridtolerance="10"
     guidetolerance="10"
     inkscape:pageopacity="0"
     inkscape:pageshadow="2"
     inkscape:window-width="1920"
     inkscape:window-height="1052"
     id="namedview26"
     showgrid="false"
     inkscape:zoom="1.0308762"
     inkscape:cx="197.49155"
     inkscape:cy="188.67826"
     inkscape:window-x="1366"
     inkscape:window-y="0"
     inkscape:window-maximized="1"
     inkscape:current-layer="svg2"
     borderlayer="false"
     fit-margin-top="0"
     fit-margin-left="0"
     fit-margin-right="0"
     fit-margin-bottom="0" /><metadata
     id="metadata8"><rdf:RDF><cc:Work
         rdf:about=""><dc:format>image/svg+xml</dc:format><dc:type
           rdf:resource="http://purl.org/dc/dcmitype/StillImage" /><dc:title></dc:title></cc:Work></rdf:RDF></metadata><defs
     id="defs6"><clipPath
       id="clipPath16"
       clipPathUnits="userSpaceOnUse"><path
         id="path18"
         d="m 0,595.28 841.89,0 L 841.89,0 0,0 0,595.28 Z"
         inkscape:connector-curvature="0" /></clipPath></defs><g
     transform="matrix(1.25,0,0,-1.25,-331.59988,560.75537)"
     id="g10"><g
       id="g12"><g
         clip-path="url(#clipPath16)"
         id="g14"><g
           transform="translate(566.7969,297.8433)"
           id="g20"><path
             id="path22"
             style="fill:#ff5200;fill-opacity:1;fill-rule:nonzero;stroke:none"
             d="m 0,0 c 0,-83.25 -67.505,-150.749 -150.755,-150.749 -83.269,0 -150.762,67.499 -150.762,150.749 0,83.256 67.493,150.761 150.762,150.761 C -67.505,150.761 0,83.256 0,0"
             inkscape:connector-curvature="0" /></g><g
           transform="translate(310.0317,256.2842)"
           id="g24"><path
             id="path26"
             style="fill:#ffffff;fill-opacity:1;fill-rule:nonzero;stroke:none"
             d="m 0,0 c -3.258,-16.291 -3.001,-29.218 0.764,-38.788 3.771,-9.57 11.518,-14.368 23.221,-14.368 6.108,0 11.834,1.809 17.192,5.423 5.345,3.614 10.209,8.682 14.586,15.205 L 70.276,40.644 C 68.032,46.041 64.596,50.247 59.962,53.235 55.329,56.25 49.655,57.757 42.928,57.757 32.239,57.757 23.347,52.84 16.271,43.014 9.202,33.187 3.976,19.91 0.619,3.219 L 0,0 Z m -36.05,3.219 c 5.602,28.105 14.566,49.292 26.888,63.549 12.321,14.257 28.158,21.378 47.509,21.378 7.846,0 14.994,-1.671 21.457,-5.042 6.47,-3.343 11.848,-8.088 16.12,-14.19 l 17.883,89.206 36.504,0 -47.667,-238.309 -31.462,0 0.922,16.336 c -6.017,-6.404 -12.612,-11.274 -19.793,-14.585 -7.181,-3.304 -14.737,-4.957 -22.675,-4.957 -17.732,0 -31.034,8.017 -39.959,24.051 -8.906,16.047 -11.025,35.833 -6.345,59.344 l 0.618,3.219 z"
             inkscape:connector-curvature="0" /></g><g
           transform="translate(487.7471,356.0679)"
           id="g28"><path
             id="path30"
             style="fill:#ffffff;fill-opacity:1;fill-rule:nonzero;stroke:none"
             d="m 0,0 c 6.516,7.128 13.723,12.591 21.602,16.422 7.912,3.831 16.238,5.726 24.985,5.726 15.383,0 26.789,-5.621 34.221,-16.876 7.43,-11.262 8.912,-28.191 4.429,-50.793 l -20.168,-100.666 -36.497,0 20.148,100.962 c 2.758,13.954 2.455,23.609 -0.908,28.954 -3.358,5.345 -9.926,8.03 -19.708,8.03 -5.897,0 -11.761,-1.533 -17.567,-4.594 -5.799,-3.054 -11.005,-7.221 -15.579,-12.519 l -24.144,-120.833 -36.503,0 47.667,238.302 36.503,0 L 0,0 Z"
             inkscape:connector-curvature="0" /></g><g
           transform="translate(412.8628,201.1133)"
           id="g32"><path
             id="path34"
             style="fill:#ffffff;fill-opacity:1;fill-rule:nonzero;stroke:none"
             d="m 0,0 c -1.379,0 -2.643,-0.651 -3.794,-1.948 -1.152,-1.297 -1.998,-2.943 -2.544,-4.937 l 0.055,-0.132 10.226,0 0.108,0.679 c 0.29,1.942 0.119,3.482 -0.516,4.62 C 2.899,-0.572 1.721,0 0,0 m -3.265,-25.242 c -3.771,0 -6.631,1.383 -8.579,4.134 -1.948,2.757 -2.58,6.246 -1.889,10.471 l 0.161,1.087 c 0.707,4.443 2.415,8.036 5.127,10.775 2.709,2.731 5.806,4.093 9.288,4.074 3.607,0 6.233,-1.211 7.872,-3.627 1.642,-2.422 2.146,-5.634 1.51,-9.643 L 9.6,-11.86 l -16.998,0 c -0.253,-2.475 0.063,-4.444 0.951,-5.898 0.888,-1.455 2.366,-2.179 4.433,-2.179 1.543,0 2.955,0.224 4.242,0.666 1.29,0.44 2.541,1.059 3.755,1.855 l 1.359,-4.337 c -1.178,-0.981 -2.675,-1.804 -4.486,-2.481 -1.813,-0.672 -3.853,-1.008 -6.121,-1.008"
             inkscape:connector-curvature="0" /></g><g
           transform="translate(437.7754,181.1768)"
           id="g36"><path
             id="path38"
             style="fill:#ffffff;fill-opacity:1;fill-rule:nonzero;stroke:none"
             d="m 0,0 c 1.396,0 2.666,0.474 3.805,1.422 1.145,0.94 1.83,2.132 2.067,3.554 l 5.877,0 0.053,-0.164 C 11.427,1.929 9.999,-0.475 7.53,-2.409 5.068,-4.338 2.277,-5.306 -0.842,-5.306 c -3.917,0 -6.773,1.41 -8.566,4.233 -1.797,2.817 -2.351,6.339 -1.659,10.564 l 0.134,0.954 c 0.708,4.423 2.354,7.992 4.937,10.716 2.587,2.718 5.924,4.074 10.024,4.074 3.206,0 5.701,-1.033 7.491,-3.113 1.784,-2.073 2.382,-4.693 1.803,-7.846 l -0.052,-0.131 -5.924,0 c 0.27,1.685 0.033,3.067 -0.711,4.16 -0.743,1.086 -1.896,1.632 -3.448,1.632 -2.147,0 -3.838,-0.916 -5.095,-2.745 -1.251,-1.83 -2.093,-4.074 -2.528,-6.733 L -4.567,9.504 C -5.041,6.641 -4.963,4.344 -4.337,2.606 -3.712,0.868 -2.264,0 0,0"
             inkscape:connector-curvature="0" /></g><g
           transform="translate(479.0322,246.8457)"
           id="g40"><path
             id="path42"
             style="fill:#ffffff;fill-opacity:1;fill-rule:nonzero;stroke:none"
             d="m 0,0 -6.497,0 1.172,5.792 6.497,0 L 0,0 Z m -7.312,-36.636 -6.498,0 5.872,29.428 6.502,0 -5.876,-29.428 z"
             inkscape:connector-curvature="0" /></g><g
           transform="translate(494.1836,246.7861)"
           id="g44"><path
             id="path46"
             style="fill:#ffffff;fill-opacity:1;fill-rule:nonzero;stroke:none"
             d="m 0,0 -1.435,-7.148 4.865,0 -0.981,-4.897 -4.871,0 -3.231,-16.265 c -0.271,-1.302 -0.225,-2.191 0.151,-2.665 0.368,-0.467 0.954,-0.705 1.75,-0.705 0.435,0 0.909,0.034 1.416,0.093 0.507,0.066 0.961,0.151 1.362,0.257 l -0.302,-4.838 c -0.685,-0.31 -1.489,-0.547 -2.41,-0.725 -0.908,-0.17 -1.856,-0.255 -2.843,-0.255 -2.153,0 -3.784,0.723 -4.891,2.177 -1.105,1.449 -1.349,3.673 -0.73,6.661 l 3.232,16.265 -4.107,0 0.98,4.897 4.108,0 L -6.496,0 0,0 Z"
             inkscape:connector-curvature="0" /></g><g
           transform="translate(545.626,162.6504)"
           id="g48"><path
             id="path50"
             style="fill:#ff5200;fill-opacity:1;fill-rule:nonzero;stroke:none"
             d="m 0,0 c 0,1.512 -1.048,2.267 -3.141,2.267 -0.79,0 -1.386,-0.048 -1.789,-0.146 0.042,-1.054 0.063,-2.587 0.063,-4.597 0.277,-0.013 0.61,-0.02 0.999,-0.02 C -1.29,-2.496 0,-1.664 0,0 m 3.39,-9.755 -2.204,0 c -0.915,2.759 -1.61,4.416 -2.081,4.971 -0.471,0.555 -1.331,0.832 -2.579,0.832 -0.596,0 -1.053,-0.008 -1.373,-0.021 0,-2.246 0.042,-4.173 0.125,-5.782 l -2.141,0 c 0.11,2.15 0.166,4.52 0.166,7.113 0,2.441 -0.056,4.582 -0.166,6.427 l 1.476,0 c 0.028,0 0.35,0.011 0.967,0.03 0.617,0.023 1.237,0.033 1.861,0.033 3.038,0 4.556,-1.047 4.556,-3.141 0,-1.733 -0.853,-2.961 -2.559,-3.682 l 0,-0.103 C 0.2,-3.301 0.797,-3.793 1.228,-4.556 1.656,-5.318 2.378,-7.051 3.39,-9.755 m 4.41,6.281 c 0,2.925 -1.03,5.424 -3.089,7.497 -2.06,2.074 -4.552,3.111 -7.478,3.111 -2.925,0 -5.424,-1.037 -7.497,-3.111 -2.073,-2.073 -3.11,-4.572 -3.11,-7.497 0,-2.925 1.037,-5.424 3.11,-7.497 2.073,-2.073 4.572,-3.11 7.497,-3.11 2.926,0 5.418,1.037 7.478,3.11 2.059,2.073 3.089,4.572 3.089,7.497 m 1.913,-0.042 c 0,-3.438 -1.216,-6.371 -3.651,-8.797 -2.432,-2.427 -5.375,-3.64 -8.829,-3.64 -3.452,0 -6.402,1.213 -8.849,3.64 -2.447,2.426 -3.671,5.359 -3.671,8.797 0,3.454 1.224,6.404 3.671,8.851 2.447,2.447 5.397,3.671 8.849,3.671 3.439,0 6.378,-1.224 8.82,-3.671 2.439,-2.447 3.66,-5.397 3.66,-8.851"
             inkscape:connector-curvature="0" /></g></g></g></g></svg>